<?xml version="1.0" encoding="UTF-8"?>
<svg version="1.1" xmlns="http://www.w3.org/2000/svg" width="281" height="274">
<path d="M0 0 C7.68600561 6.72663332 7.68600561 6.72663332 9.09765625 10.5703125 C8.9617191 14.37655265 8.63657369 16.78266394 6.47265625 19.9453125 C3.22701094 22.16601719 1.02644013 22.5703125 -2.90234375 22.5703125 C-7.17231931 20.04318411 -10.84748015 16.99983281 -14.58984375 13.7578125 C-29.33300818 1.29513134 -46.21498546 -6.88660898 -64.90234375 -11.4296875 C-65.86914062 -11.67589844 -66.8359375 -11.92210938 -67.83203125 -12.17578125 C-95.98180015 -18.0913124 -126.65173082 -10.96068585 -150.71191406 4.11816406 C-177.10540238 21.61576421 -194.33305782 47.69115565 -200.90234375 78.5703125 C-206.41148942 106.81904837 -201.02316855 136.81637797 -185.5390625 161.16015625 C-166.27101121 189.53339646 -140.85483272 206.62041452 -107.00024414 213.12817383 C-76.13440767 217.53340906 -44.72715507 209.71521056 -19.70556641 191.27368164 C-18.09328587 190.05389777 -16.49732341 188.81263334 -14.90234375 187.5703125 C-14.0825 186.93609375 -13.26265625 186.301875 -12.41796875 185.6484375 C10.38245545 166.72893657 21.21607225 138.3133488 25.03515625 109.7578125 C25.63227028 106.07816107 26.12424566 104.52964635 28.22265625 101.3203125 C32.01454698 99.0122051 34.77687126 98.55109507 39.09765625 99.5703125 C42.09765625 101.2578125 42.09765625 101.2578125 44.09765625 104.5703125 C48.02268807 127.00899 35.8291433 156.24304923 23.35449219 174.3293457 C21.33268274 177.12995239 19.23003691 179.85237334 17.09765625 182.5703125 C16.36804688 183.53324219 15.6384375 184.49617187 14.88671875 185.48828125 C-6.43817185 212.7795221 -38.83203467 229.27516732 -72.90234375 233.5703125 C-77.85803632 233.80722088 -82.81651801 233.81599613 -87.77734375 233.8203125 C-88.47175568 233.82098724 -89.1661676 233.82166199 -89.88162231 233.82235718 C-100.51576637 233.80593675 -110.56678349 233.29077181 -120.90234375 230.5703125 C-121.5562207 230.39870605 -122.21009766 230.22709961 -122.88378906 230.05029297 C-144.59928649 224.19495764 -163.68396413 214.20472428 -179.90234375 198.5703125 C-181.29184988 197.39611723 -182.68719999 196.2287823 -184.08984375 195.0703125 C-205.30208119 176.48804759 -217.77142375 145.8522158 -221.90234375 118.5703125 C-222.08667969 117.47460938 -222.27101562 116.37890625 -222.4609375 115.25 C-226.64849498 80.34133501 -215.73683345 45.09092488 -194.3046875 17.50390625 C-170.94816577 -11.01763492 -139.79878895 -28.81897877 -102.9296875 -33.11328125 C-64.50479159 -36.48422313 -29.52759725 -24.71893067 0 0 Z " fill="#F4F8FA" transform="translate(231.90234375,35.4296875)"/>
<path d="M0 0 C7.16102566 5.46469367 10.5227945 13.72438826 14.08203125 21.75 C15.13770889 24.08477649 16.19370731 26.41940795 17.25 28.75390625 C17.78286621 29.94000488 18.31573242 31.12610352 18.86474609 32.34814453 C20.85305965 36.75218893 22.88512575 41.13502558 24.92236328 45.51660156 C26.91392346 49.80621741 28.88485894 54.10520765 30.85693359 58.40380859 C32.28536852 61.50260136 33.72691584 64.59477425 35.17311096 67.68528748 C36.39863778 70.31267664 37.61105206 72.94598644 38.8208313 75.58065796 C39.40455334 76.84488986 39.99352367 78.10671375 40.58810425 79.36587524 C46.47312349 91.84364172 46.47312349 91.84364172 45.45703125 98.875 C44.23975442 101.83124372 42.98281737 102.67165466 40.45703125 104.875 C36.50602341 106.0962206 34.37167425 106.20060422 30.47583008 104.8137207 C26.73407269 102.41070449 25.35273725 99.72455661 23.59375 95.79296875 C23.25977707 95.08657761 22.92580414 94.38018646 22.58171082 93.65238953 C21.52245465 91.40104294 20.48950222 89.13873465 19.45703125 86.875 C18.78506357 85.43751898 18.11141808 84.00082098 17.43603516 82.56494141 C15.35254446 78.11848772 13.30861964 73.65445239 11.26953125 69.1875 C10.53334379 67.57899305 9.79709613 65.97051365 9.06079102 64.36206055 C6.85354582 59.5357619 4.65411912 54.70592956 2.45703125 49.875 C2.11514771 49.12379883 1.77326416 48.37259766 1.42102051 47.59863281 C-0.47489355 43.43142608 -2.36559873 39.26192994 -4.24771118 35.08847046 C-4.81687803 33.82707749 -5.38716003 32.56618707 -5.95858765 31.30581665 C-6.74179542 29.57667807 -7.51949345 27.84504698 -8.296875 26.11328125 C-8.73330322 25.14430908 -9.16973145 24.17533691 -9.61938477 23.17700195 C-10.54296875 20.875 -10.54296875 20.875 -10.54296875 18.875 C-11.53296875 18.875 -12.52296875 18.875 -13.54296875 18.875 C-13.71747559 19.48743057 -13.89198242 20.09986115 -14.07177734 20.73085022 C-15.81856773 26.72345087 -17.84977067 32.51556765 -20.16796875 38.30859375 C-20.51152405 39.17672699 -20.85507935 40.04486023 -21.20904541 40.93930054 C-22.31581695 43.73219417 -23.42885941 46.52252614 -24.54296875 49.3125 C-25.31096821 51.2410914 -26.07887125 53.16972121 -26.84667969 55.09838867 C-28.36964271 58.92119006 -29.89582017 62.74268922 -31.42382812 66.56347656 C-33.01270242 70.53957842 -34.58801203 74.5207238 -36.15270996 78.50639343 C-37.35750637 81.57020088 -38.57618848 84.62843294 -39.79296875 87.6875 C-40.20933594 88.75734131 -40.62570313 89.82718262 -41.0546875 90.92944336 C-43.24593944 96.38287671 -45.31591315 100.7367194 -49.54296875 104.875 C-53.63148187 106.13872224 -55.75112228 106.1491007 -59.79296875 104.75 C-62.95110774 102.59672342 -64.21542873 101.46716711 -65.54296875 97.875 C-65.27779763 90.05245183 -62.79023019 83.82659353 -59.73046875 76.6875 C-58.72405007 74.28175598 -57.71888774 71.87548607 -56.71484375 69.46875 C-56.45456894 68.8490181 -56.19429413 68.22928619 -55.9261322 67.59077454 C-53.28102971 61.28640806 -50.7541533 54.93676161 -48.23336792 48.58190918 C-46.49720926 44.2134691 -44.74203845 39.85261332 -42.99072266 35.49023438 C-42.03561996 33.10521571 -41.08467982 30.71852533 -40.13818359 28.33007812 C-38.82763779 25.02722137 -37.49994223 21.7317627 -36.16796875 18.4375 C-35.78761475 17.46723877 -35.40726074 16.49697754 -35.01538086 15.49731445 C-32.14594452 8.47403931 -28.56973255 1.54735754 -21.23046875 -1.5625 C-13.3263698 -4.60253806 -7.52667144 -3.59482815 0 0 Z " fill="#F3F7F9" transform="translate(154.54296875,82.125)"/>
<path d="M0 0 C2.92152702 1.8344472 5.4326609 3.86532181 7 7 C7.44570136 15.02262443 7.44570136 15.02262443 5 18 C1.47019361 19.96854587 -1.06655753 21 -5.125 21 C-8.83730114 19.70876482 -10.56329698 18.06328379 -13 15 C-14.47638821 11.493578 -14.01841525 10.05933804 -12.875 6.375 C-9.84121896 0.91419413 -6.2406376 -1.01887961 0 0 Z " fill="#E7F0F8" transform="translate(255,64)"/>
<path d="M0 0 C0 0.99 0 1.98 0 3 C0.20625 3.845625 0.4125 4.69125 0.625 5.5625 C0.74875 6.366875 0.8725 7.17125 1 8 C-1.21013545 10.21013545 -3.49969 12.1247675 -6 14 C-6.66 14 -7.32 14 -8 14 C-8.24492187 14.64324219 -8.48984375 15.28648438 -8.7421875 15.94921875 C-10.40004252 19.97028946 -12.26100738 23.8836251 -14.125 27.8125 C-14.49753906 28.60076172 -14.87007812 29.38902344 -15.25390625 30.20117188 C-16.16795524 32.13473705 -17.08379842 34.06745388 -18 36 C-19.42443814 31.72668559 -17.54564721 29.09862284 -15.6875 25.25 C-15.33228271 24.50298828 -14.97706543 23.75597656 -14.61108398 22.98632812 C-10.80945023 15.23089709 -6.16521635 6.16521635 0 0 Z " fill="#D1E4F6" transform="translate(37,54)"/>
<path d="M0 0 C0.66 0 1.32 0 2 0 C2.12375 0.639375 2.2475 1.27875 2.375 1.9375 C2.684375 2.9584375 2.684375 2.9584375 3 4 C3.66 4.33 4.32 4.66 5 5 C5.67578125 7.1171875 5.67578125 7.1171875 6.3125 9.875 C7.64875461 15.17847686 9.64542339 19.81623934 12.109375 24.6875 C13 27 13 27 12 30 C10.16055374 26.04447897 8.32948447 22.08513715 6.5 18.125 C5.71302734 16.43310547 5.71302734 16.43310547 4.91015625 14.70703125 C4.41386719 13.63066406 3.91757813 12.55429688 3.40625 11.4453125 C2.71499023 9.95281982 2.71499023 9.95281982 2.00976562 8.43017578 C1 6 1 6 1 4 C0.01 4 -0.98 4 -2 4 C-1.34 2.68 -0.68 1.36 0 0 Z " fill="#CCE2F4" transform="translate(143,97)"/>
<path d="M0 0 C3.3883025 3.29897994 6.47565331 6.68985028 9.4375 10.375 C10.21867187 11.33664063 10.99984375 12.29828125 11.8046875 13.2890625 C13.08188983 14.8662483 14.35832911 16.44405378 15.6328125 18.0234375 C18.88670237 21.95299849 22.44135686 25.25499609 26.36328125 28.51953125 C28 30 28 30 29 32 C25.14283174 30.38366282 22.28381565 27.80400303 19.25 25 C18.72140381 24.51305664 18.19280762 24.02611328 17.64819336 23.52441406 C12.90894107 19.06987731 8.85662897 14.23717744 5 9 C4.47277344 8.30390625 3.94554687 7.6078125 3.40234375 6.890625 C0 2.30362117 0 2.30362117 0 0 Z " fill="#BEDBF2" transform="translate(31,208)"/>
<path d="M0 0 C2.5 1.5 2.5 1.5 4 3 C3.67 3.66 3.34 4.32 3 5 C2.01 4.67 1.02 4.34 0 4 C-0.33 3.34 -0.66 2.68 -1 2 C-4.02934491 1.34227572 -4.02934491 1.34227572 -7 1 C-7.12375 1.598125 -7.2475 2.19625 -7.375 2.8125 C-8 5 -8 5 -10 8 C-10.66 8 -11.32 8 -12 8 C-12.04898437 8.74765625 -12.09796875 9.4953125 -12.1484375 10.265625 C-12.22320312 11.25046875 -12.29796875 12.2353125 -12.375 13.25 C-12.44460938 14.22453125 -12.51421875 15.1990625 -12.5859375 16.203125 C-12.98465249 18.89633189 -13.63507063 20.66963279 -15 23 C-14.38580424 7.72982255 -14.38580424 7.72982255 -11 2 C-7.3187559 -0.45416273 -4.27738037 -0.59384154 0 0 Z " fill="#BFD3ED" transform="translate(271,135)"/>
<path d="M0 0 C1.32787576 3.98362727 0.29538103 5.47547925 -1.23828125 9.34765625 C-1.47910934 9.96015732 -1.71993744 10.57265839 -1.96806335 11.20372009 C-2.47902668 12.49737523 -2.99459402 13.78921997 -3.5144043 15.0793457 C-4.3092746 17.05448535 -5.08832491 19.03531468 -5.86523438 21.01757812 C-9.71136408 30.71136408 -9.71136408 30.71136408 -12 33 C-11.27239587 26.09353537 -8.35423861 19.9107921 -5.79492188 13.5234375 C-5.43849609 12.6159375 -5.08207031 11.7084375 -4.71484375 10.7734375 C-4.38605225 9.95278809 -4.05726074 9.13213867 -3.71850586 8.28662109 C-2.80015268 5.76346742 -2.80015268 5.76346742 -3 2 C-2.01 1.34 -1.02 0.68 0 0 Z " fill="#CBDDF1" transform="translate(133,118)"/>
<path d="M0 0 C0.99 0.33 1.98 0.66 3 1 C3.33 1.99 3.66 2.98 4 4 C5.65 4 7.3 4 9 4 C7 7 7 7 3.75 7.9375 C-0.82056579 8.0136761 -2.53707918 6.88576735 -6 4 C-6.33 3.34 -6.66 2.68 -7 2 C-4.69 2.33 -2.38 2.66 0 3 C0 2.01 0 1.02 0 0 Z " fill="#D3E4F7" transform="translate(229,50)"/>
<path d="M0 0 C0 6.10665529 -3.05847875 9.67394009 -7 14 C-7.99 14.66 -8.98 15.32 -10 16 C-10.66 15.34 -11.32 14.68 -12 14 C-11.38511719 13.32453125 -10.77023438 12.6490625 -10.13671875 11.953125 C-9.32847656 11.06109375 -8.52023438 10.1690625 -7.6875 9.25 C-6.88699219 8.36828125 -6.08648437 7.4865625 -5.26171875 6.578125 C-3.39083089 4.44550672 -1.65915714 2.29812057 0 0 Z " fill="#DCEAF8" transform="translate(235,204)"/>
<path d="M0 0 C1.9375 0.7109375 1.9375 0.7109375 4 2 C4.6875 4.1015625 4.6875 4.1015625 5 6.625 C5.58449213 10.32499605 6.41472251 13.19646242 8.1875 16.5 C8.785625 17.655 9.38375 18.81 10 20 C9.67 20.66 9.34 21.32 9 22 C7.677356 19.46317484 6.36682639 16.92122349 5.0625 14.375 C4.68931641 13.66214844 4.31613281 12.94929687 3.93164062 12.21484375 C1.85216012 8.13081898 0.46005679 4.6297779 0 0 Z " fill="#CADDF4" transform="translate(17,179)"/>
<path d="M0 0 C0 3.95348446 -1.42309243 5.34084082 -3.75 8.5 C-4.79414063 9.93859375 -4.79414063 9.93859375 -5.859375 11.40625 C-7.77374517 13.72585182 -9.51293514 15.34195676 -12 17 C-10.88438119 14.48985768 -9.75578373 12.71878127 -7.9375 10.625 C-5.75549945 8.10727789 -5.75549945 8.10727789 -5.5625 4.8125 C-5.376875 3.884375 -5.19125 2.95625 -5 2 C-2.4375 0.625 -2.4375 0.625 0 0 Z " fill="#D0E2F3" transform="translate(254,208)"/>
<path d="M0 0 C0.66 0.33 1.32 0.66 2 1 C-13.51740696 8.23409364 -13.51740696 8.23409364 -17.375 7.625 C-17.91125 7.41875 -18.4475 7.2125 -19 7 C-17.35 6.67 -15.7 6.34 -14 6 C-13.67 4.68 -13.34 3.36 -13 2 C-11.783125 2.04125 -10.56625 2.0825 -9.3125 2.125 C-5.74794856 2.14392682 -3.2778701 1.44611916 0 0 Z " fill="#CEE1F0" transform="translate(198,256)"/>
<path d="M0 0 C1.32 0.66 2.64 1.32 4 2 C4 2.66 4 3.32 4 4 C4.66 4.33 5.32 4.66 6 5 C6.33 5.99 6.66 6.98 7 8 C2.52761347 6.58192622 -1.71146306 4.88695626 -6 3 C-4 2.33333333 -2 1.66666667 0 1 C0 0.67 0 0.34 0 0 Z " fill="#DBE7F7" transform="translate(190,26)"/>
<path d="M0 0 C3.34708051 1.54841575 6.24667512 3.49105864 9.25 5.625 C10.14203125 6.25664062 11.0340625 6.88828125 11.953125 7.5390625 C12.96632813 8.26222656 12.96632813 8.26222656 14 9 C13.01 9.495 13.01 9.495 12 10 C11.113125 9.34 10.22625 8.68 9.3125 8 C6.01888014 6.01139933 4.71748127 5.56264926 1 6 C0.67 4.02 0.34 2.04 0 0 Z " fill="#D0E2F5" transform="translate(70,225)"/>
<path d="M0 0 C0.66 0 1.32 0 2 0 C1.32784675 3.8088684 0.46704554 7.41388869 -1 11 C-1.99 11.33 -2.98 11.66 -4 12 C-4.125 6.25 -4.125 6.25 -3 4 C-2.34 4 -1.68 4 -1 4 C-0.67 2.68 -0.34 1.36 0 0 Z " fill="#DFEEF7" transform="translate(97,158)"/>
<path d="M0 0 C0.99 0.66 1.98 1.32 3 2 C-1.33333333 6.33333333 -5.66666667 10.66666667 -10 15 C-8.6350365 8.42335766 -8.6350365 8.42335766 -5.5625 6.375 C-4.716875 5.92125 -3.87125 5.4675 -3 5 C-1.19203897 2.43389334 -1.19203897 2.43389334 0 0 Z " fill="#D0DFF8" transform="translate(63,49)"/>
<path d="M0 0 C-2.07937949 1.31914392 -4.16308019 2.63038213 -6.25 3.9375 C-6.83652344 4.31068359 -7.42304688 4.68386719 -8.02734375 5.06835938 C-10.95906265 6.8965661 -13.55480229 8.46275382 -17 9 C-14.2180632 5.72713318 -10.72045933 4.03572303 -7 2 C-7.33 1.34 -7.66 0.68 -8 0 C-2.25 -1.125 -2.25 -1.125 0 0 Z " fill="#C2D9F0" transform="translate(218,247)"/>
<path d="M0 0 C1.32 0.66 2.64 1.32 4 2 C4 5.96 4 9.92 4 14 C3.67 14 3.34 14 3 14 C2.67 11.69 2.34 9.38 2 7 C1.01 6.67 0.02 6.34 -1 6 C-1.042721 4.33388095 -1.04063832 2.66617115 -1 1 C-0.67 0.67 -0.34 0.34 0 0 Z " fill="#E2ECF4" transform="translate(272,138)"/>
<path d="M0 0 C0.66 0 1.32 0 2 0 C2 0.99 2 1.98 2 3 C2.99 3.33 3.98 3.66 5 4 C5 4.66 5 5.32 5 6 C5.66 6.33 6.32 6.66 7 7 C6.34 7 5.68 7 5 7 C5.33 8.98 5.66 10.96 6 13 C2.57068046 9.2440786 1.43570917 4.76533255 0 0 Z " fill="#CFE3F4" transform="translate(174,167)"/>
<path d="M0 0 C2.64 0.33 5.28 0.66 8 1 C8 2.32 8 3.64 8 5 C8.639375 5.28875 9.27875 5.5775 9.9375 5.875 C12 7 12 7 13 9 C9.91220974 7.53400783 7.09532795 5.82973607 4.25 3.9375 C3.45078125 3.41027344 2.6515625 2.88304687 1.828125 2.33984375 C1.22484375 1.89769531 0.6215625 1.45554688 0 1 C0 0.67 0 0.34 0 0 Z " fill="#C9D8F5" transform="translate(202,37)"/>
<path d="M0 0 C0.33 0.66 0.66 1.32 1 2 C0.34 2.66 -0.32 3.32 -1 4 C-1.33 4.66 -1.66 5.32 -2 6 C-4.31 6 -6.62 6 -9 6 C-6.11912454 3.59927045 -3.43595166 1.52708963 0 0 Z " fill="#D5E3F6" transform="translate(205,232)"/>
<path d="M0 0 C0.66 0 1.32 0 2 0 C1.54965877 1.62723299 1.08944646 3.25173664 0.625 4.875 C0.36976563 5.77992187 0.11453125 6.68484375 -0.1484375 7.6171875 C-1 10 -1 10 -3 12 C-2.69230293 10.18667846 -2.37870936 8.37435655 -2.0625 6.5625 C-1.80146484 5.04849609 -1.80146484 5.04849609 -1.53515625 3.50390625 C-1 1 -1 1 0 0 Z " fill="#D2E2F5" transform="translate(139,101)"/>
<path d="M0 0 C3.93673644 1.31224548 6.22719294 2.91910327 9 6 C6.75 6.375 6.75 6.375 4 6 C1.6875 3 1.6875 3 0 0 Z " fill="#D1E2F9" transform="translate(212,22)"/>
<path d="M0 0 C0.33 0.66 0.66 1.32 1 2 C-0.25 5.5625 -0.25 5.5625 -2 9 C-2.99 9.33 -3.98 9.66 -5 10 C-3.66511872 6.40608886 -2.03977277 3.24509304 0 0 Z " fill="#CCDCF3" transform="translate(244,190)"/>
<path d="M0 0 C0.66 0.33 1.32 0.66 2 1 C-0.31 3.31 -2.62 5.62 -5 8 C-5.66 7.67 -6.32 7.34 -7 7 C-4.66666667 4.66666667 -2.33333333 2.33333333 0 0 Z " fill="#C3DEF2" transform="translate(240,226)"/>
<path d="M0 0 C-1.65 1.32 -3.3 2.64 -5 4 C-5.66 3.67 -6.32 3.34 -7 3 C-6.67 2.01 -6.34 1.02 -6 0 C-3 -1 -3 -1 0 0 Z " fill="#EFF8F5" transform="translate(240,227)"/>
<path d="M0 0 C0.66 1.32 1.32 2.64 2 4 C-0.64 4.66 -3.28 5.32 -6 6 C-4 4 -2 2 0 0 Z " fill="#D0E2F0" transform="translate(213,226)"/>
<path d="M0 0 C0 0.99 0 1.98 0 3 C-2.64 3.66 -5.28 4.32 -8 5 C-3.22727273 0 -3.22727273 0 0 0 Z " fill="#C8DCF7" transform="translate(80,18)"/>
</svg>
